Coordinates
version=1
nRows=14
nColumns=40
inDegrees=yes

Units are S.I. units (second, meters, Newtons, ...)
Angles are in degrees.

endheader
time	pelvis_tilt	pelvis_list	pelvis_rotation	pelvis_tx	pelvis_ty	pelvis_tz	hip_flexion_r	hip_adduction_r	hip_rotation_r	knee_angle_r	knee_angle_r_beta	ankle_angle_r	subtalar_angle_r	mtp_angle_r	hip_flexion_l	hip_adduction_l	hip_rotation_l	knee_angle_l	knee_angle_l_beta	ankle_angle_l	subtalar_angle_l	mtp_angle_l	lumbar_extension	lumbar_bending	lumbar_rotation	arm_flex_r	arm_add_r	arm_rot_r	elbow_flex_r	pro_sup_r	wrist_flex_r	wrist_dev_r	arm_flex_l	arm_add_l	arm_rot_l	elbow_flex_l	pro_sup_l	wrist_flex_l	wrist_dev_l
      0.09000000	     -3.76441952	     -1.64441198	     -2.12435416	      1.08545703	      0.93418205	      0.42268482	     34.32487216	     -8.87772776	     -4.43238379	     72.70621856	     72.70621856	     -2.82710778	    -14.56851610	     -1.66727105	     15.71972222	     -1.98532516	    -10.14751961	     18.42506041	     18.42506041	     10.16102524	     -5.20396341	     -4.21636523	    -11.34044965	      1.09932312	      3.18513526	      3.34949570	    -12.97769043	     -0.72205735	     72.88625818	     45.17916368	      0.00000000	      0.00000000	     17.31397125	    -14.54872109	      5.03950511	     43.42261668	     45.66810514	      0.00000000	      0.00000000
      0.10142857	     -3.75501417	     -1.83979178	     -2.08052835	      1.08399142	      0.93454080	      0.42201738	     35.24082723	     -8.79614945	     -4.69960530	     71.36624391	     71.36624391	     -2.66550683	    -14.55359392	     -1.66949806	     15.05800825	     -2.12033585	    -10.19266925	     18.14147220	     18.14147220	     10.48424357	     -4.84243037	     -4.58564192	    -11.41395702	      1.34389019	      3.67148811	      1.49132142	    -13.80572213	     -0.88323947	     69.76283262	     45.28262521	      0.00000000	      0.00000000	     19.36834373	    -14.39885570	      4.88880531	     44.75198505	     45.73149661	      0.00000000	      0.00000000
      0.11285714	     -3.76046110	     -2.02405093	     -2.01897483	      1.08260599	      0.93485662	      0.42148002	     36.03418493	     -8.71608723	     -5.01189350	     69.84752790	     69.84752790	     -2.57330259	    -14.62748024	     -1.64388854	     14.41546443	     -2.32579420	    -10.58737137	     17.86683503	     17.86683503	     10.72522771	     -3.92262970	     -5.52285355	    -11.38643298	      1.51684347	      3.31516885	      1.20757207	    -13.43537603	     -2.17371499	     63.48135271	     45.53842596	      0.00000000	      0.00000000	     20.67574040	    -14.92807270	      4.82197267	     46.67291554	     45.81829920	      0.00000000	      0.00000000
      0.12428571	     -3.73325169	     -2.12381344	     -2.01724971	      1.08133316	      0.93514577	      0.42089718	     36.70448991	     -8.69965065	     -5.23952424	     68.19031389	     68.19031389	     -2.39561506	    -14.62139574	     -1.26829382	     13.68849569	     -2.38454731	    -10.82848398	     17.49791157	     17.49791157	     11.00725053	     -3.34948716	     -6.02854744	    -11.47249538	      1.62177151	      3.27543936	      0.44759007	    -13.63247940	     -2.73051543	     58.59201447	     45.71620167	      0.00000000	      0.00000000	     21.95032156	    -15.21141202	      4.48969063	     49.10553735	     45.93418422	      0.00000000	      0.00000000
      0.13571429	     -3.66913209	     -2.23441567	     -2.01975884	      1.08026059	      0.93552923	      0.42036660	     37.13946529	     -8.65346560	     -5.50277704	     66.25939394	     66.25939394	     -2.16268531	    -14.60806562	     -0.56492532	     12.87704209	     -2.44421181	    -11.04072262	     17.05559443	     17.05559443	     11.25968307	     -2.78544717	     -6.50574924	    -11.57224414	      1.73711225	      2.93816910	      0.18078455	    -13.68778844	     -3.37782367	     53.16883903	     45.91083446	      0.00000000	      0.00000000	     22.85297819	    -15.68029734	      3.90156635	     51.75463097	     46.08948488	      0.00000000	      0.00000000
      0.14714286	     -3.64418841	     -2.23574309	     -2.07562570	      1.07930702	      0.93577548	      0.41986466	     37.49686684	     -8.69667807	     -5.70142543	     64.11050960	     64.11050960	     -1.91414836	    -14.55688293	      0.11262932	     12.05885586	     -2.37690631	    -11.30026020	     16.52541002	     16.52541002	     11.47556131	     -2.27315600	     -6.93265044	    -11.63312699	      1.74873588	      2.77602318	     -0.31802413	    -13.88366302	     -3.97864030	     48.35353987	     46.07852443	      0.00000000	      0.00000000	     23.74787003	    -15.99000965	      3.20471595	     54.36003555	     46.25068067	      0.00000000	      0.00000000
      0.15857143	     -3.59156962	     -2.16036380	     -2.18340273	      1.07851917	      0.93598207	      0.41939600	     37.66168834	     -8.77425646	     -5.84673113	     61.67383369	     61.67383369	     -1.74148636	    -14.54539612	      0.52240980	     11.13781212	     -2.19439805	    -11.51744059	     15.87913089	     15.87913089	     11.73704515	     -1.86848557	     -7.07643272	    -11.75316244	      1.70921414	      3.21696612	     -1.94435362	    -14.53894909	     -4.13988524	     45.92032086	     46.15752457	      0.00000000	      0.00000000	     25.11939554	    -15.83602842	      2.82978537	     56.25980567	     46.33300863	      0.00000000	      0.00000000
      0.17000000	     -3.63377032	     -2.05286756	     -2.27711623	      1.07784559	      0.93599340	      0.41903144	     37.75396068	     -8.87896899	     -6.04911433	     58.95428295	     58.95428295	     -1.52626220	    -14.43025838	      0.93901775	     10.30314936	     -1.99016375	    -11.77499015	     15.18509159	     15.18509159	     11.76728621	     -1.43247283	     -7.79232459	    -11.69922471	      1.59551488	      2.53457429	     -1.58146124	    -14.33770847	     -5.59912517	     40.02335766	     46.40738988	      0.00000000	      0.00000000	     25.10936360	    -16.59776812	      1.87714939	     59.84233564	     46.52304369	      0.00000000	      0.00000000
      0.18142857	     -3.63552874	     -1.88066645	     -2.42590258	      1.07731314	      0.93594890	      0.41876738	     37.65034585	     -8.98696091	     -6.20400348	     55.96343443	     55.96343443	     -1.27591543	    -14.20522599	      1.22035998	      9.38422841	     -1.70033711	    -12.03004620	     14.45302900	     14.45302900	     11.98447145	     -1.03711086	     -7.92012083	    -11.73512900	      1.44789039	      2.94393399	     -3.32272489	    -14.94687923	     -5.83152947	     38.17577868	     46.46916394	      0.00000000	      0.00000000	     26.21184388	    -16.46195642	      1.46817756	     61.79025228	     46.60432189	      0.00000000	      0.00000000
      0.19285714	     -3.71772267	     -1.70346154	     -2.55153649	      1.07686678	      0.93570382	      0.41859653	     37.42812617	     -9.07738922	     -6.42650535	     52.64314234	     52.64314234	     -1.17988948	    -13.85809769	      0.92283168	      8.52019828	     -1.40184288	    -12.24958606	     13.63410904	     13.63410904	     11.94181495	     -0.66314143	     -8.70530499	    -11.66349762	      1.27588521	      2.40516867	     -3.55121673	    -14.97883626	     -7.35075027	     34.14976412	     46.66996450	      0.00000000	      0.00000000	     25.88962245	    -17.19163971	      0.55926269	     65.81130976	     46.78454897	      0.00000000	      0.00000000
      0.20428571	     -3.77230221	     -1.51987630	     -2.69549544	      1.07653326	      0.93537024	      0.41855665	     37.02531219	     -9.11352265	     -6.66618515	     49.10797477	     49.10797477	     -0.82215826	    -13.18219930	      1.13127659	      7.63917818	     -1.10097170	    -12.47441320	     12.88876768	     12.88876768	     12.17448397	     -0.25254638	     -8.81022047	    -11.59410295	      1.12398525	      2.77316643	     -5.34828538	    -15.52088584	     -7.59650898	     32.78792945	     46.71796339	      0.00000000	      0.00000000	     26.76659250	    -17.04419595	      0.18229092	     67.62994422	     46.85638637	      0.00000000	      0.00000000
      0.21571429	     -3.86251022	     -1.24996596	     -2.83625810	      1.07630235	      0.93481602	      0.41864705	     36.52247499	     -9.18551171	     -6.89540714	     45.36008268	     45.36008268	     -0.71206094	    -12.31580085	      0.52311031	      6.76582196	     -0.70503316	    -12.69527756	     12.05909889	     12.05909889	     12.15353641	      0.11541299	     -9.50273961	    -11.54927090	      0.83323559	      2.31541215	     -6.08119672	    -15.63424939	     -9.12579350	     30.37940499	     46.86718848	      0.00000000	      0.00000000	     26.30195110	    -17.71577787	     -0.78708430	     71.77494649	     47.04214206	      0.00000000	      0.00000000
      0.22714286	     -3.94810531	     -1.00894564	     -2.96990102	      1.07618702	      0.93414429	      0.41885496	     35.86977439	     -9.19189297	     -7.21667988	     41.49139158	     41.49139158	     -0.28388821	    -10.93124830	      0.71830578	      5.92065244	     -0.35675575	    -12.93659680	     11.33555261	     11.33555261	     12.37653897	      0.59870493	     -9.66961370	    -11.45386018	      0.59460960	      2.67951483	     -7.84384141	    -16.01911459	     -9.43846708	     29.30285714	     46.90844051	      0.00000000	      0.00000000	     26.90255370	    -17.60697358	     -1.12977751	     73.81177941	     47.11628233	      0.00000000	      0.00000000
      0.23857143	     -4.02178211	     -0.73270103	     -3.08761989	      1.07618729	      0.93330304	      0.41921390	     35.10599838	     -9.19987439	     -7.60190935	     37.59222466	     37.59222466	      0.14250414	     -9.16813886	      0.95773853	      5.07024323	      0.01862900	    -13.18065602	     10.63565258	     10.63565258	     12.59450191	      1.12296284	     -9.96537034	    -11.37663537	      0.29670005	      2.78629946	     -9.44660306	    -16.28263657	     -9.93152277	     28.48678192	     46.95163005	      0.00000000	      0.00000000	     27.05055195	    -17.76078098	     -1.49434722	     76.53648963	     47.20392562	      0.00000000	      0.00000000
